<mxfile host="app.diagrams.net" modified="2021-05-06T19:59:49.322Z" agent="5.0 (Windows NT 10.0; Win64; x64) AppleWebKit/537.36 (KHTML, like Gecko) Chrome/90.0.4430.93 Safari/537.36" etag="wejX1-dFM7Zp9SxV7R0c" version="14.6.10" type="github">
  <diagram id="C5RBs43oDa-KdzZeNtuy" name="Page-1">
    <mxGraphModel dx="1808" dy="526" grid="1" gridSize="10" guides="1" tooltips="1" connect="1" arrows="1" fold="1" page="1" pageScale="1" pageWidth="827" pageHeight="1169" math="0" shadow="0">
      <root>
        <mxCell id="WIyWlLk6GJQsqaUBKTNV-0" />
        <mxCell id="WIyWlLk6GJQsqaUBKTNV-1" parent="WIyWlLk6GJQsqaUBKTNV-0" />
        <mxCell id="ywQsubyfW5WAnFuOlCAS-36" style="edgeStyle=orthogonalEdgeStyle;rounded=0;orthogonalLoop=1;jettySize=auto;html=1;exitX=0.5;exitY=1;exitDx=0;exitDy=0;entryX=0.5;entryY=0;entryDx=0;entryDy=0;endArrow=block;endFill=0;" edge="1" parent="WIyWlLk6GJQsqaUBKTNV-1" source="WIyWlLk6GJQsqaUBKTNV-3" target="ywQsubyfW5WAnFuOlCAS-0">
          <mxGeometry relative="1" as="geometry" />
        </mxCell>
        <mxCell id="WIyWlLk6GJQsqaUBKTNV-3" value="INICIALIZAR" style="rounded=1;whiteSpace=wrap;html=1;fontSize=12;glass=0;strokeWidth=1;shadow=0;" parent="WIyWlLk6GJQsqaUBKTNV-1" vertex="1">
          <mxGeometry x="160" y="20" width="120" height="40" as="geometry" />
        </mxCell>
        <mxCell id="ywQsubyfW5WAnFuOlCAS-22" value="NO" style="edgeStyle=orthogonalEdgeStyle;rounded=0;orthogonalLoop=1;jettySize=auto;html=1;exitX=0;exitY=0.5;exitDx=0;exitDy=0;entryX=0;entryY=0.5;entryDx=0;entryDy=0;endArrow=block;endFill=0;fontSize=14;" edge="1" parent="WIyWlLk6GJQsqaUBKTNV-1" source="WIyWlLk6GJQsqaUBKTNV-10" target="ywQsubyfW5WAnFuOlCAS-2">
          <mxGeometry x="-0.7391" y="10" relative="1" as="geometry">
            <Array as="points">
              <mxPoint x="-70" y="450" />
              <mxPoint x="-70" y="330" />
            </Array>
            <mxPoint as="offset" />
          </mxGeometry>
        </mxCell>
        <mxCell id="ywQsubyfW5WAnFuOlCAS-25" style="edgeStyle=orthogonalEdgeStyle;rounded=0;orthogonalLoop=1;jettySize=auto;html=1;exitX=1;exitY=0.5;exitDx=0;exitDy=0;endArrow=block;endFill=0;fontSize=14;" edge="1" parent="WIyWlLk6GJQsqaUBKTNV-1" source="WIyWlLk6GJQsqaUBKTNV-10">
          <mxGeometry relative="1" as="geometry">
            <mxPoint x="310" y="330" as="targetPoint" />
          </mxGeometry>
        </mxCell>
        <mxCell id="ywQsubyfW5WAnFuOlCAS-37" value="SI" style="edgeLabel;html=1;align=center;verticalAlign=middle;resizable=0;points=[];fontSize=14;" vertex="1" connectable="0" parent="ywQsubyfW5WAnFuOlCAS-25">
          <mxGeometry x="-0.6323" y="-2" relative="1" as="geometry">
            <mxPoint x="-38" y="8" as="offset" />
          </mxGeometry>
        </mxCell>
        <mxCell id="WIyWlLk6GJQsqaUBKTNV-10" value="¿ El proceso pide SC ?" style="rhombus;whiteSpace=wrap;html=1;shadow=0;fontFamily=Helvetica;fontSize=12;align=center;strokeWidth=1;spacing=6;spacingTop=-4;aspect=fixed;" parent="WIyWlLk6GJQsqaUBKTNV-1" vertex="1">
          <mxGeometry x="-10" y="410" width="100" height="80" as="geometry" />
        </mxCell>
        <mxCell id="ywQsubyfW5WAnFuOlCAS-18" style="edgeStyle=orthogonalEdgeStyle;rounded=0;orthogonalLoop=1;jettySize=auto;html=1;exitX=0.5;exitY=1;exitDx=0;exitDy=0;entryX=0.5;entryY=0;entryDx=0;entryDy=0;endArrow=block;endFill=0;" edge="1" parent="WIyWlLk6GJQsqaUBKTNV-1" source="ywQsubyfW5WAnFuOlCAS-0" target="ywQsubyfW5WAnFuOlCAS-15">
          <mxGeometry relative="1" as="geometry" />
        </mxCell>
        <mxCell id="ywQsubyfW5WAnFuOlCAS-0" value="Decisor de prioridades&lt;br&gt;mi_prioridad = 1, 2, 3, etc" style="rounded=1;whiteSpace=wrap;html=1;fontSize=12;glass=0;strokeWidth=1;shadow=0;aspect=fixed;" vertex="1" parent="WIyWlLk6GJQsqaUBKTNV-1">
          <mxGeometry x="115" y="100" width="210" height="70" as="geometry" />
        </mxCell>
        <mxCell id="ywQsubyfW5WAnFuOlCAS-20" value="&lt;font style=&quot;font-size: 14px;&quot;&gt;NO&lt;/font&gt;" style="edgeStyle=orthogonalEdgeStyle;rounded=0;orthogonalLoop=1;jettySize=auto;html=1;exitX=0;exitY=0.5;exitDx=0;exitDy=0;entryX=1;entryY=0.5;entryDx=0;entryDy=0;endArrow=block;endFill=0;fontSize=14;" edge="1" parent="WIyWlLk6GJQsqaUBKTNV-1" source="ywQsubyfW5WAnFuOlCAS-1" target="ywQsubyfW5WAnFuOlCAS-2">
          <mxGeometry x="-0.3333" y="-20" relative="1" as="geometry">
            <mxPoint as="offset" />
          </mxGeometry>
        </mxCell>
        <mxCell id="ywQsubyfW5WAnFuOlCAS-24" value="SI" style="edgeStyle=orthogonalEdgeStyle;rounded=0;orthogonalLoop=1;jettySize=auto;html=1;exitX=1;exitY=0.5;exitDx=0;exitDy=0;entryX=0;entryY=0.5;entryDx=0;entryDy=0;endArrow=block;endFill=0;fontSize=14;" edge="1" parent="WIyWlLk6GJQsqaUBKTNV-1" source="ywQsubyfW5WAnFuOlCAS-1" target="ywQsubyfW5WAnFuOlCAS-3">
          <mxGeometry x="-0.3333" y="20" relative="1" as="geometry">
            <mxPoint as="offset" />
          </mxGeometry>
        </mxCell>
        <mxCell id="ywQsubyfW5WAnFuOlCAS-1" value="&amp;nbsp;¿quiero&amp;nbsp; solicitar SC ?" style="rhombus;whiteSpace=wrap;html=1;shadow=0;fontFamily=Helvetica;fontSize=12;align=center;strokeWidth=1;spacing=6;spacingTop=-4;aspect=fixed;" vertex="1" parent="WIyWlLk6GJQsqaUBKTNV-1">
          <mxGeometry x="160" y="282" width="120" height="96" as="geometry" />
        </mxCell>
        <mxCell id="ywQsubyfW5WAnFuOlCAS-21" style="edgeStyle=orthogonalEdgeStyle;rounded=0;orthogonalLoop=1;jettySize=auto;html=1;exitX=0.5;exitY=1;exitDx=0;exitDy=0;entryX=0.5;entryY=0;entryDx=0;entryDy=0;endArrow=block;endFill=0;" edge="1" parent="WIyWlLk6GJQsqaUBKTNV-1" source="ywQsubyfW5WAnFuOlCAS-2" target="WIyWlLk6GJQsqaUBKTNV-10">
          <mxGeometry relative="1" as="geometry" />
        </mxCell>
        <mxCell id="ywQsubyfW5WAnFuOlCAS-2" value="Espera por un proceso" style="rounded=1;whiteSpace=wrap;html=1;fontSize=12;glass=0;strokeWidth=1;shadow=0;" vertex="1" parent="WIyWlLk6GJQsqaUBKTNV-1">
          <mxGeometry x="-20" y="310" width="120" height="40" as="geometry" />
        </mxCell>
        <mxCell id="ywQsubyfW5WAnFuOlCAS-26" style="edgeStyle=orthogonalEdgeStyle;rounded=0;orthogonalLoop=1;jettySize=auto;html=1;exitX=0.5;exitY=1;exitDx=0;exitDy=0;entryX=0.5;entryY=0;entryDx=0;entryDy=0;endArrow=block;endFill=0;" edge="1" parent="WIyWlLk6GJQsqaUBKTNV-1" source="ywQsubyfW5WAnFuOlCAS-3" target="ywQsubyfW5WAnFuOlCAS-4">
          <mxGeometry relative="1" as="geometry" />
        </mxCell>
        <mxCell id="ywQsubyfW5WAnFuOlCAS-3" value="SEND(request) a todos los nodos" style="rounded=1;whiteSpace=wrap;html=1;fontSize=12;glass=0;strokeWidth=1;shadow=0;" vertex="1" parent="WIyWlLk6GJQsqaUBKTNV-1">
          <mxGeometry x="340" y="310" width="120" height="40" as="geometry" />
        </mxCell>
        <mxCell id="ywQsubyfW5WAnFuOlCAS-27" value="NO" style="edgeStyle=orthogonalEdgeStyle;rounded=0;orthogonalLoop=1;jettySize=auto;html=1;exitX=1;exitY=0.5;exitDx=0;exitDy=0;endArrow=block;endFill=0;fontSize=14;" edge="1" parent="WIyWlLk6GJQsqaUBKTNV-1" source="ywQsubyfW5WAnFuOlCAS-4">
          <mxGeometry x="-0.4545" y="-20" relative="1" as="geometry">
            <mxPoint x="400" y="380" as="targetPoint" />
            <Array as="points">
              <mxPoint x="500" y="450" />
              <mxPoint x="500" y="380" />
            </Array>
            <mxPoint as="offset" />
          </mxGeometry>
        </mxCell>
        <mxCell id="ywQsubyfW5WAnFuOlCAS-28" value="SÍ" style="edgeStyle=orthogonalEdgeStyle;rounded=0;orthogonalLoop=1;jettySize=auto;html=1;exitX=0.5;exitY=1;exitDx=0;exitDy=0;entryX=0.5;entryY=0;entryDx=0;entryDy=0;endArrow=block;endFill=0;fontSize=14;" edge="1" parent="WIyWlLk6GJQsqaUBKTNV-1" source="ywQsubyfW5WAnFuOlCAS-4" target="ywQsubyfW5WAnFuOlCAS-5">
          <mxGeometry x="-0.2" y="20" relative="1" as="geometry">
            <mxPoint as="offset" />
          </mxGeometry>
        </mxCell>
        <mxCell id="ywQsubyfW5WAnFuOlCAS-4" value="¿ Todos han confirmado?" style="rhombus;whiteSpace=wrap;html=1;shadow=0;fontFamily=Helvetica;fontSize=12;align=center;strokeWidth=1;spacing=6;spacingTop=-4;aspect=fixed;" vertex="1" parent="WIyWlLk6GJQsqaUBKTNV-1">
          <mxGeometry x="350" y="410" width="100" height="80" as="geometry" />
        </mxCell>
        <mxCell id="ywQsubyfW5WAnFuOlCAS-29" style="edgeStyle=orthogonalEdgeStyle;rounded=0;orthogonalLoop=1;jettySize=auto;html=1;exitX=0;exitY=0.5;exitDx=0;exitDy=0;entryX=1;entryY=0.75;entryDx=0;entryDy=0;endArrow=block;endFill=0;" edge="1" parent="WIyWlLk6GJQsqaUBKTNV-1" source="ywQsubyfW5WAnFuOlCAS-5" target="ywQsubyfW5WAnFuOlCAS-6">
          <mxGeometry relative="1" as="geometry" />
        </mxCell>
        <mxCell id="ywQsubyfW5WAnFuOlCAS-5" value="Entrada a la SC&lt;br&gt;[SC = 1]" style="rounded=1;whiteSpace=wrap;html=1;fontSize=12;glass=0;strokeWidth=1;shadow=0;" vertex="1" parent="WIyWlLk6GJQsqaUBKTNV-1">
          <mxGeometry x="340" y="540" width="120" height="40" as="geometry" />
        </mxCell>
        <mxCell id="ywQsubyfW5WAnFuOlCAS-6" value="Se ejecuta el proceso más prioritario" style="rounded=1;whiteSpace=wrap;html=1;fontSize=12;glass=0;strokeWidth=1;shadow=0;" vertex="1" parent="WIyWlLk6GJQsqaUBKTNV-1">
          <mxGeometry x="160" y="530" width="120" height="40" as="geometry" />
        </mxCell>
        <mxCell id="ywQsubyfW5WAnFuOlCAS-30" style="edgeStyle=orthogonalEdgeStyle;rounded=0;orthogonalLoop=1;jettySize=auto;html=1;exitX=0;exitY=0.5;exitDx=0;exitDy=0;entryX=1;entryY=0.5;entryDx=0;entryDy=0;endArrow=block;endFill=0;" edge="1" parent="WIyWlLk6GJQsqaUBKTNV-1" source="ywQsubyfW5WAnFuOlCAS-7" target="ywQsubyfW5WAnFuOlCAS-12">
          <mxGeometry relative="1" as="geometry" />
        </mxCell>
        <mxCell id="ywQsubyfW5WAnFuOlCAS-7" value="Buscamos al siguiente más prioritario" style="rounded=1;whiteSpace=wrap;html=1;fontSize=12;glass=0;strokeWidth=1;shadow=0;" vertex="1" parent="WIyWlLk6GJQsqaUBKTNV-1">
          <mxGeometry x="160" y="570" width="120" height="40" as="geometry" />
        </mxCell>
        <mxCell id="ywQsubyfW5WAnFuOlCAS-34" style="edgeStyle=orthogonalEdgeStyle;rounded=0;orthogonalLoop=1;jettySize=auto;html=1;exitX=1;exitY=0.5;exitDx=0;exitDy=0;entryX=0;entryY=0.5;entryDx=0;entryDy=0;endArrow=block;endFill=0;" edge="1" parent="WIyWlLk6GJQsqaUBKTNV-1" source="ywQsubyfW5WAnFuOlCAS-11" target="ywQsubyfW5WAnFuOlCAS-14">
          <mxGeometry relative="1" as="geometry" />
        </mxCell>
        <mxCell id="ywQsubyfW5WAnFuOlCAS-11" value="Salida de la SC&lt;br&gt;[SC = 0, quiero = 0]" style="rounded=1;whiteSpace=wrap;html=1;fontSize=12;glass=0;strokeWidth=1;shadow=0;" vertex="1" parent="WIyWlLk6GJQsqaUBKTNV-1">
          <mxGeometry x="160" y="770" width="120" height="40" as="geometry" />
        </mxCell>
        <mxCell id="ywQsubyfW5WAnFuOlCAS-31" value="SÍ" style="edgeStyle=orthogonalEdgeStyle;rounded=0;orthogonalLoop=1;jettySize=auto;html=1;exitX=0.5;exitY=1;exitDx=0;exitDy=0;entryX=0.5;entryY=0;entryDx=0;entryDy=0;endArrow=block;endFill=0;fontSize=14;" edge="1" parent="WIyWlLk6GJQsqaUBKTNV-1" source="ywQsubyfW5WAnFuOlCAS-12" target="ywQsubyfW5WAnFuOlCAS-13">
          <mxGeometry x="-0.1429" y="20" relative="1" as="geometry">
            <mxPoint as="offset" />
          </mxGeometry>
        </mxCell>
        <mxCell id="ywQsubyfW5WAnFuOlCAS-33" style="edgeStyle=orthogonalEdgeStyle;rounded=0;orthogonalLoop=1;jettySize=auto;html=1;exitX=0;exitY=0.5;exitDx=0;exitDy=0;endArrow=block;endFill=0;" edge="1" parent="WIyWlLk6GJQsqaUBKTNV-1" source="ywQsubyfW5WAnFuOlCAS-12">
          <mxGeometry relative="1" as="geometry">
            <mxPoint x="40" y="790" as="targetPoint" />
            <Array as="points">
              <mxPoint x="-70" y="590" />
              <mxPoint x="-70" y="790" />
              <mxPoint x="40" y="790" />
            </Array>
          </mxGeometry>
        </mxCell>
        <mxCell id="ywQsubyfW5WAnFuOlCAS-38" value="NO" style="edgeLabel;html=1;align=center;verticalAlign=middle;resizable=0;points=[];fontSize=14;" vertex="1" connectable="0" parent="ywQsubyfW5WAnFuOlCAS-33">
          <mxGeometry x="-0.0923" y="-2" relative="1" as="geometry">
            <mxPoint x="22" y="-131" as="offset" />
          </mxGeometry>
        </mxCell>
        <mxCell id="ywQsubyfW5WAnFuOlCAS-12" value="¿ sólo hay procesos &lt;br&gt;de G/E ?" style="rhombus;whiteSpace=wrap;html=1;shadow=0;fontFamily=Helvetica;fontSize=12;align=center;strokeWidth=1;spacing=6;spacingTop=-4;aspect=fixed;" vertex="1" parent="WIyWlLk6GJQsqaUBKTNV-1">
          <mxGeometry x="-16.25" y="545" width="112.5" height="90" as="geometry" />
        </mxCell>
        <mxCell id="ywQsubyfW5WAnFuOlCAS-32" style="edgeStyle=orthogonalEdgeStyle;rounded=0;orthogonalLoop=1;jettySize=auto;html=1;exitX=0.5;exitY=1;exitDx=0;exitDy=0;entryX=0;entryY=0.5;entryDx=0;entryDy=0;endArrow=block;endFill=0;" edge="1" parent="WIyWlLk6GJQsqaUBKTNV-1" source="ywQsubyfW5WAnFuOlCAS-13" target="ywQsubyfW5WAnFuOlCAS-11">
          <mxGeometry relative="1" as="geometry" />
        </mxCell>
        <mxCell id="ywQsubyfW5WAnFuOlCAS-13" value="Send -1 al resto de nodos para que consulten también" style="rounded=1;whiteSpace=wrap;html=1;fontSize=12;glass=0;strokeWidth=1;shadow=0;aspect=fixed;" vertex="1" parent="WIyWlLk6GJQsqaUBKTNV-1">
          <mxGeometry x="-30" y="670" width="140" height="46.67" as="geometry" />
        </mxCell>
        <mxCell id="ywQsubyfW5WAnFuOlCAS-35" style="edgeStyle=orthogonalEdgeStyle;rounded=0;orthogonalLoop=1;jettySize=auto;html=1;exitX=1;exitY=0.5;exitDx=0;exitDy=0;entryX=1;entryY=0.5;entryDx=0;entryDy=0;endArrow=block;endFill=0;" edge="1" parent="WIyWlLk6GJQsqaUBKTNV-1" source="ywQsubyfW5WAnFuOlCAS-14" target="ywQsubyfW5WAnFuOlCAS-0">
          <mxGeometry relative="1" as="geometry">
            <Array as="points">
              <mxPoint x="570" y="790" />
              <mxPoint x="570" y="135" />
            </Array>
          </mxGeometry>
        </mxCell>
        <mxCell id="ywQsubyfW5WAnFuOlCAS-14" value="REPLY a los nodos pendientes" style="rounded=1;whiteSpace=wrap;html=1;fontSize=12;glass=0;strokeWidth=1;shadow=0;" vertex="1" parent="WIyWlLk6GJQsqaUBKTNV-1">
          <mxGeometry x="340" y="770" width="120" height="40" as="geometry" />
        </mxCell>
        <mxCell id="ywQsubyfW5WAnFuOlCAS-19" style="edgeStyle=orthogonalEdgeStyle;rounded=0;orthogonalLoop=1;jettySize=auto;html=1;exitX=0.5;exitY=1;exitDx=0;exitDy=0;entryX=0.5;entryY=0;entryDx=0;entryDy=0;endArrow=block;endFill=0;" edge="1" parent="WIyWlLk6GJQsqaUBKTNV-1" source="ywQsubyfW5WAnFuOlCAS-15" target="ywQsubyfW5WAnFuOlCAS-1">
          <mxGeometry relative="1" as="geometry" />
        </mxCell>
        <mxCell id="ywQsubyfW5WAnFuOlCAS-15" value="Calcula max_ticket,&lt;br&gt;[quiero = 1]" style="rounded=1;whiteSpace=wrap;html=1;fontSize=12;glass=0;strokeWidth=1;shadow=0;" vertex="1" parent="WIyWlLk6GJQsqaUBKTNV-1">
          <mxGeometry x="160" y="210" width="120" height="40" as="geometry" />
        </mxCell>
      </root>
    </mxGraphModel>
  </diagram>
</mxfile>
